# xmcd
#
# Track frame offsets:
#	150
#	11737
#	27152
#	40432
#
# Disc length: 714 seconds
#
# Revision: 1
# Processed by: cddbd v1.5.2PL0 Copyright (c) Steve Scherf et al.
# Submitted via: audiograbber 1.83.01
#
DISCID=2a02c804
DTITLE=John the Revelator  - Unplugged
DYEAR=1997
DGENRE=
TTITLE0=John the Revelator - Blues train to Thalia
TTITLE1=John the Revelator - It takes a lot to laugh, it takes a train to cry
TTITLE2=John the Revelator - Riding on a daycoach
TTITLE3=John the Revelator - Night train
EXTD=
EXTT0=
EXTT1=
EXTT2=
EXTT3=
PLAYORDER=
